<?xml version="1.0" encoding="utf-8"?>
<!-- Generator: Adobe Illustrator 24.1.2, SVG Export Plug-In . SVG Version: 6.00 Build 0)  -->
<svg version="1.1" id="Laag_1" xmlns="http://www.w3.org/2000/svg" xmlns:xlink="http://www.w3.org/1999/xlink" x="0px" y="0px"
	 viewBox="0 0 458.9 347.1" style="enable-background:new 0 0 458.9 347.1;" xml:space="preserve">
<style type="text/css">
	.st0{fill:#FF9F58;stroke:#499487;stroke-width:20;stroke-miterlimit:10;}
</style>
<path class="st0" d="M396,327.4H65c-22.7,0-41.2-18.5-41.2-41.2V60.2C23.8,37.5,42.3,19,65,19h331c22.7,0,41.2,18.5,41.2,41.2v226.1
	C437.2,308.9,418.6,327.4,396,327.4z"/>
<path class="st0" d="M240.8,222.9l181-169.3c10.8-10.1,3.6-28.1-11.1-28.1h-362c-14.7,0-21.9,18.1-11.1,28.1l181,169.3
	C224.9,228.7,234.6,228.7,240.8,222.9z"/>
<line class="st0" x1="35.7" y1="313.6" x2="167.7" y2="181.5"/>
<line class="st0" x1="426.6" y1="312.9" x2="291.7" y2="178"/>
</svg>
